<svg width="40" height="40" viewBox="0 0 40 40" fill="none" xmlns="http://www.w3.org/2000/svg">
<path d="M31.3043 16.5217C31.3043 16.7524 31.2127 16.9735 31.0497 17.1366C30.8866 17.2997 30.6654 17.3913 30.4348 17.3913H16.5217C16.2911 17.3913 16.0699 17.2997 15.9069 17.1366C15.7438 16.9735 15.6522 16.7524 15.6522 16.5217C15.6522 16.2911 15.7438 16.0699 15.9069 15.9069C16.0699 15.7438 16.2911 15.6522 16.5217 15.6522H30.4348C30.6654 15.6522 30.8866 15.7438 31.0497 15.9069C31.2127 16.0699 31.3043 16.2911 31.3043 16.5217ZM30.4348 22.6087H16.5217C16.2911 22.6087 16.0699 22.7003 15.9069 22.8634C15.7438 23.0265 15.6522 23.2476 15.6522 23.4783C15.6522 23.7089 15.7438 23.9301 15.9069 24.0931C16.0699 24.2562 16.2911 24.3478 16.5217 24.3478H30.4348C30.6654 24.3478 30.8866 24.2562 31.0497 24.0931C31.2127 23.9301 31.3043 23.7089 31.3043 23.4783C31.3043 23.2476 31.2127 23.0265 31.0497 22.8634C30.8866 22.7003 30.6654 22.6087 30.4348 22.6087ZM40 2.6087V37.3913C40 38.0832 39.7252 38.7467 39.2359 39.2359C38.7467 39.7252 38.0832 40 37.3913 40H2.6087C1.91683 40 1.25329 39.7252 0.764069 39.2359C0.274844 38.7467 0 38.0832 0 37.3913V2.6087C0 1.91683 0.274844 1.25329 0.764069 0.764069C1.25329 0.274844 1.91683 0 2.6087 0H37.3913C38.0832 0 38.7467 0.274844 39.2359 0.764069C39.7252 1.25329 40 1.91683 40 2.6087ZM2.6087 38.2609H8.69565V1.73913H2.6087C2.37807 1.73913 2.1569 1.83075 1.99382 1.99382C1.83075 2.1569 1.73913 2.37807 1.73913 2.6087V37.3913C1.73913 37.6219 1.83075 37.8431 1.99382 38.0062C2.1569 38.1693 2.37807 38.2609 2.6087 38.2609ZM38.2609 2.6087C38.2609 2.37807 38.1693 2.1569 38.0062 1.99382C37.8431 1.83075 37.6219 1.73913 37.3913 1.73913H10.4348V38.2609H37.3913C37.6219 38.2609 37.8431 38.1693 38.0062 38.0062C38.1693 37.8431 38.2609 37.6219 38.2609 37.3913V2.6087Z" fill="white" fill-opacity="0.9"/>
</svg>
