<svg width="63" height="48" viewBox="0 0 63 48" fill="none" xmlns="http://www.w3.org/2000/svg">
<path d="M35.8005 32.1572H32.8105C32.8105 36.5333 36.826 40.0791 41.7803 40.0791C44.3934 40.0791 46.7465 39.0921 48.3865 37.5156L46.8737 36.2939C45.905 36.9515 43.3365 38.2076 41.7803 38.2076C37.9442 38.2076 34.6114 34.3036 34.6114 32.1964L35.8005 32.1572Z" fill="white" fill-opacity="0.9"/>
<path fill-rule="evenodd" clip-rule="evenodd" d="M22.8177 6.60969C23.767 5.72244 24.5474 4.52465 24.8165 3.38073C24.9689 2.73114 25.0407 1.70287 24.3635 0.872659C23.6713 0.0218481 22.6473 -0.0716301 21.8415 0.0361077C21.3236 0.104983 20.8026 0.145175 20.2808 0.156521C19.8173 0.172365 19.2642 0.192961 18.6543 0.402099C18.0189 0.620743 17.4179 1.00416 16.6989 1.56662C16.2292 1.93187 15.8755 3.48568 15.4624 3.921C13.0271 2.08312 9.80264 0.213558 4.88275 0.468643C4.28802 0.474946 3.72002 0.731378 3.30369 1.18153C2.88735 1.63168 2.6568 2.23867 2.66275 2.86898C2.6687 3.49928 2.91066 4.10127 3.3354 4.5425C3.76014 4.98374 4.33287 5.22808 4.9276 5.22178H7.07735C7.20591 5.31526 7.75629 5.40124 7.8714 5.48838L4.42081 10.616C3.75908 10.674 2.73103 10.7693 2.15642 11.122C1.24006 11.6843 0.921287 12.4075 0.544401 12.9868C0.167516 13.5662 0.217624 13.3542 0.111017 14.0488C0.00440942 14.7434 -0.0733276 15.3717 0.110865 16.0478L0.544401 17.6322C0.814219 18.6216 1.37994 19.4913 2.15642 20.1105C2.9329 20.7297 3.87813 21.0649 4.84986 21.0656H9.51711C9.84245 21.0654 10.1589 21.1778 10.4186 21.3856L13.2772 22.8654C13.5313 23.0682 14.2591 23.5721 14.5342 23.7115C16.2638 28.6706 17.7094 33.4063 19.8173 36.2201L20.2957 42.32C19.8008 42.7237 19.4375 43.2814 19.257 43.9151C19.0764 44.5487 19.0876 45.2263 19.2889 45.8528C19.4903 46.4794 19.8717 47.0234 20.3796 47.4085C20.8876 47.7936 21.4965 48.0004 22.1211 48H26.6059C27.0024 48 27.3827 47.8331 27.663 47.5359C27.9434 47.2388 28.1009 46.8358 28.1009 46.4156L27.2913 32.6592H39.1158C41.1504 34.665 44.5588 36.5198 47.8746 37.3421L47.2907 42.6104C46.7955 43.0136 46.7068 43.1958 46.5025 43.9151C46.5025 44.6461 46.3017 45.4959 46.5025 46.1226C46.7034 46.7493 46.7816 47.0214 47.2893 47.4069C47.7969 47.7925 48.4057 47.9999 49.0302 48H53.5151C53.9116 48 54.2918 47.8331 54.5722 47.5359C54.8525 47.2388 55.01 46.8358 55.01 46.4156V19.4812C55.01 14.8548 53.8589 11.6306 51.9648 9.56297C50.0707 7.49695 47.6369 6.80616 45.4946 6.80616H25.8584C24.7372 6.80616 22.215 7.95501 21.3016 7.82984L22.8177 6.60969ZM9.51711 3.41559C9.57691 3.46945 6.88455 2.81511 6.93986 2.86898C7.22022 3.14015 11 4.72783 11.0297 5.12887C11.0594 5.5299 10.9441 5.9279 10.7071 6.24212L5.94716 12.5479C5.80719 12.7337 5.62956 12.8837 5.42745 12.9868C5.22534 13.09 5.00392 13.1436 4.7796 13.1437H4.42081C4.18894 13.1436 3.96022 13.2006 3.75274 13.3103C3.54526 13.4201 3.67602 13.3103 3.43852 13.4634C3.29917 13.6598 2.89646 13.8071 2.8546 14.0488C2.56756 14.2409 2.59829 14.8911 2.66275 15.1272V17.0117C2.75285 17.3417 3.09138 17.9761 3.35051 18.1824C3.60963 18.3888 4.52576 18.8571 4.84986 18.8569H9.18972C10.1652 18.8569 11.3309 19.3155 12.1093 19.9385L15.1262 21.1828C15.3026 21.3222 15.482 21.411 15.6599 21.4585C15.8954 21.5228 16.1127 21.647 16.2927 21.8204C16.4727 21.9937 16.6101 22.2111 16.6929 22.4535C18.5586 27.9132 19.7003 32.8166 22.4126 34.5756C22.6129 34.8275 22.3873 35.1169 22.4126 35.4452L22.6199 42.7678C22.6514 43.1641 22.6427 43.601 22.4126 43.9151C22.1824 44.2291 21.8221 45.4714 21.4521 45.5372H25.6856L25.111 32.1562C25.111 31.736 25.2685 31.333 25.5488 31.0359C25.8292 30.7388 26.2094 30.5718 26.6059 30.5718H39.7764C40.1663 30.5719 40.5408 30.7333 40.8199 31.0218C42.883 33.1496 45.0985 34.7356 48.5309 35.3472C48.8583 35.4058 49.1579 35.5782 49.3826 35.8372C49.6072 36.0963 49.7441 36.4272 49.7717 36.7778L49.0302 42.6104C49.0613 43.0064 48.8874 43.1983 48.8874 43.9151C48.4585 44.3665 48.9006 45.7846 48.5309 45.8503H53.0717V38.6341V32.1562V19.4812C53.0717 15.3935 51.926 12.4211 50.736 11.122C49.5461 9.82276 47.3856 9.36585 45.8263 9.36585H35.8997H25.8555C22.4321 9.36585 19.9235 9.3681 17.8246 8.60918C17.5152 8.49736 17.2489 8.35297 17.0666 8.06551C16.8842 7.77805 17.0476 7.5903 17.0666 7.24447C17.4525 6.80616 17.0666 7.24447 17.6497 6.55767C18.4719 5.87454 18.3347 5.94756 18.6543 5.87454C19.6753 5.64164 19.9803 4.9255 20.5708 4.46445C20.9926 4.13044 22.5347 3.03208 22.8177 2.56155C22.3303 2.60908 20.956 2.56155 20.4527 3.32052L20.8931 2.92683C20.355 2.94743 19.7531 3.35538 19.5766 3.41559C19.3973 3.47896 19.0998 3.62789 18.4719 4.11747C17.7065 4.71478 17.1324 5.35011 16.7975 5.87454C16.6756 6.06414 16.5163 6.22342 16.3307 6.34136C16.145 6.45931 15.9374 6.53312 15.7221 6.55767C15.5069 6.58223 15.2892 6.55696 15.0841 6.4836C14.879 6.41024 14.6913 6.29055 14.5342 6.1328C13.5012 5.0982 12.2738 4.32977 10.3782 3.921L9.51711 3.41559Z" fill="white" fill-opacity="0.9"/>
<path d="M62.9996 26.3409C62.9996 27.958 62.2148 29.2677 61.2479 29.2677C60.2809 29.2677 59.4961 27.958 59.4961 26.3409C59.4961 24.7238 60.2809 23.4141 61.2479 23.4141C62.2148 23.4141 62.9996 24.7238 62.9996 26.3409Z" fill="white" fill-opacity="0.9"/>
<path fill-rule="evenodd" clip-rule="evenodd" d="M45.124 9.36589V7.02443C45.2062 7.02443 52.8036 7.02443 52.9172 7.0276C55.9325 7.08147 58.3828 7.72155 60.0526 9.42159C61.7434 11.1438 62.316 13.625 62.316 16.5307L60.0526 16.1913C60.0526 13.6436 59.3869 11.9696 58.5542 11.122C57.6991 10.2506 55.662 9.47071 52.9172 9.42159H52.6105L45.124 9.36589Z" fill="white" fill-opacity="0.9"/>
<path d="M60.0498 16.0142L62.2922 15.9396V27.1049H60.7973L60.0498 16.0142Z" fill="white" fill-opacity="0.9"/>
<path fill-rule="evenodd" clip-rule="evenodd" d="M31.6953 35.7083L34.6149 34.5376L35.5519 36.3064L32.9403 37.4408L31.6953 35.7083ZM35.6192 39.8538L37.2024 36.7326L39.2579 38.0498L37.5345 40.9766L35.6207 39.8538H35.6192ZM43.3738 41.562L42.7898 40.3912L42.2059 38.6351L44.7339 37.7624L45.3678 41.2417L43.3738 41.562ZM39.2818 31.0225C39.1296 31.1643 39.0075 31.3388 38.9235 31.5343C38.8395 31.7299 38.7955 31.942 38.7945 32.1569H41.7844C41.7844 32.4167 41.7216 32.9665 41.2612 33.3974C41.0995 33.5478 40.9101 33.6611 40.705 33.7301C40.5 33.7991 40.6681 33.3908 40.4541 33.3668C40.705 34.1115 39.2503 32.8705 39.005 32.7093L40.0697 33.4973C39.7482 33.28 39.209 32.9036 38.9235 32.6358C38.1185 31.8889 37.1159 30.664 36.3667 29.8545C34.6774 28.053 33.648 26.4026 32.8632 25.1716L34.031 24.001C34.6394 24.9532 36.4202 27.4567 38.1185 29.2693C38.8103 30.0174 39.3268 29.5789 40.0697 30.2699C40.3433 30.5155 40.6437 31.1595 40.705 31.2022C40.5762 31.1369 40.2118 30.2843 40.0697 30.2699C39.8734 30.2497 39.9773 30.6497 39.7898 30.7143C39.6023 30.7789 39.4294 30.8838 39.2818 31.0225Z" fill="white" fill-opacity="0.9"/>
</svg>
