<svg width="32" height="34" viewBox="0 0 32 34" fill="none" xmlns="http://www.w3.org/2000/svg">
<path fill-rule="evenodd" clip-rule="evenodd" d="M14.667 24.8476V14.3857H17.3337V24.8476H14.667Z" fill="white" fill-opacity="0.53"/>
<path fill-rule="evenodd" clip-rule="evenodd" d="M21.3327 20.9238H10.666V18.3084H21.3327V20.9238Z" fill="white" fill-opacity="0.53"/>
<path fill-rule="evenodd" clip-rule="evenodd" d="M9.33398 9.15271C9.33398 6.98598 11.1248 5.22949 13.334 5.22949H18.6673C20.8764 5.22949 22.6673 6.98598 22.6673 9.15271V10.4604C22.6673 11.1827 22.0703 11.7682 21.334 11.7682H10.6673C9.93094 11.7682 9.33398 11.1827 9.33398 10.4604V9.15271ZM13.334 7.84497C12.5976 7.84497 12.0006 8.43046 12.0006 9.15271H20.0006C20.0006 8.43046 19.4037 7.84497 18.6673 7.84497H13.334Z" fill="white" fill-opacity="0.53"/>
<path fill-rule="evenodd" clip-rule="evenodd" d="M1.33398 13.0765C1.33398 10.9098 3.12484 9.15332 5.33398 9.15332H26.6673C28.8764 9.15332 30.6673 10.9098 30.6673 13.0765V27.4617C30.6673 29.6284 28.8764 31.3849 26.6673 31.3849H5.33398C3.12484 31.3849 1.33398 29.6284 1.33398 27.4617V13.0765ZM5.33398 11.7688C4.5976 11.7688 4.00065 12.3543 4.00065 13.0765V27.4617C4.00065 28.1839 4.5976 28.7694 5.33398 28.7694H26.6673C27.4036 28.7694 28.0006 28.1839 28.0006 27.4617V13.0765C28.0006 12.3543 27.4036 11.7688 26.6673 11.7688H5.33398Z" fill="white" fill-opacity="0.53"/>
</svg>
