<svg width="60" height="60" viewBox="0 0 60 60" fill="none" xmlns="http://www.w3.org/2000/svg">
<circle cx="30" cy="30" r="30" fill="white"/>
<path d="M30.612 17.7053C30.4346 17.5722 30.216 17.5 29.991 17.5C29.766 17.5 29.5474 17.5722 29.37 17.7053L15 28.4795L16.243 29.9911L18 28.6738V40.5769C18.0011 41.0866 18.2121 41.5752 18.587 41.9356C18.9618 42.296 19.4699 42.499 20 42.5H40C40.5301 42.499 41.0382 42.296 41.413 41.9356C41.7879 41.5752 41.9989 41.0866 42 40.5769V28.6824L43.757 29.9997L45 28.4882L30.612 17.7053ZM32 40.5769H28V32.8844H32V40.5769ZM34 40.5769V32.8844C33.9995 32.3745 33.7886 31.8857 33.4136 31.5251C33.0387 31.1646 32.5303 30.9618 32 30.9613H28C27.4697 30.9618 26.9613 31.1646 26.5864 31.5251C26.2114 31.8857 26.0005 32.3745 26 32.8844V40.5769H20V27.1747L30 19.6842L40 27.1843V40.5769H34Z" fill="#4DC090"/>
</svg>
