<svg width="30" height="25" viewBox="0 0 30 25" fill="none" xmlns="http://www.w3.org/2000/svg">
<path d="M15.612 0.205264C15.4346 0.0722415 15.216 0 14.991 0C14.766 0 14.5474 0.0722415 14.37 0.205264L0 10.9795L1.243 12.4911L3 11.1738V23.0769C3.00106 23.5866 3.21211 24.0752 3.58695 24.4356C3.9618 24.796 4.46989 24.999 5 25H25C25.5301 24.999 26.0382 24.796 26.413 24.4356C26.7879 24.0752 26.9989 23.5866 27 23.0769V11.1824L28.757 12.4997L30 10.9882L15.612 0.205264ZM17 23.0769H13V15.3844H17V23.0769ZM19 23.0769V15.3844C18.9995 14.8745 18.7886 14.3857 18.4136 14.0251C18.0387 13.6646 17.5303 13.4618 17 13.4613H13C12.4697 13.4618 11.9613 13.6646 11.5864 14.0251C11.2114 14.3857 11.0005 14.8745 11 15.3844V23.0769H5V9.67469L15 2.18415L25 9.6843V23.0769H19Z" fill="white" fill-opacity="0.53"/>
</svg>
