<svg width="56" height="54" viewBox="0 0 56 54" fill="none" xmlns="http://www.w3.org/2000/svg">
<path d="M53.3699 40.3313C52.6549 39.8578 51.6815 39.0526 50.708 37.7865C50.7771 36.126 50.0761 35.0518 49.9735 34.9081L49.6748 34.4867L49.1848 34.3681C49.0308 34.3315 48.8721 34.3112 48.7144 34.2861C48.2627 33.1968 47.9051 32.0684 47.6457 30.914L47.4357 29.9922C47.8465 28.2051 47.8121 26.3396 47.3359 24.57C49.1811 24.4967 50.9124 24.9953 49.9697 27.4503C47.9808 32.6295 56 36.963 56 36.963C56 36.963 51.5891 29.7106 54.9304 24.3164C56.9259 21.0909 50.5027 19.2047 46.144 21.8604C44.8989 19.926 43.0528 18.7872 40.9472 18.7862C40.7008 18.7862 40.4497 18.8026 40.1996 18.8344C38.962 18.9878 37.7384 19.171 36.554 19.3455C34.0657 19.7148 31.7137 20.0649 29.834 20.0649C26.543 20.0649 26.1968 18.954 26.0484 18.4796C25.9924 18.3021 25.9345 18.1363 25.8776 17.9618L26.6961 18.4188C26.5841 16.362 24.989 13.8934 24.989 13.8934L26.6224 14.1548C26.2472 11.9533 23.4238 10.0758 23.4238 10.0758L24.7632 9.82414C23.7636 8.04021 20.9496 6.83004 20.9496 6.83004L22.7173 6.71143C21.8269 5.45496 18.6116 4.53118 18.6116 4.53118L19.9733 3.61318C16.9922 2.37021 14.6188 2.99218 14.6188 2.99218L15.2394 1.60554C13.0806 1.47343 11.3829 2.47918 10.5886 3.06257C9.43597 0.966214 8.1433 0 8.1433 0C8.06024 0.529393 8.0313 0.999 8.0229 1.431C7.1241 0.905464 6.45117 0.743464 6.32517 0.716464L4.8085 0.408857L4.70117 2.01536C4.57983 3.81761 5.0213 5.41157 5.2873 6.183C4.74037 8.22825 2.53956 12.9542 1.3225 15.5694C0.635564 17.0447 0.27063 17.8335 0.132497 18.2105C-0.588971 20.1777 1.80223 22.1602 3.2909 23.167L3.75103 23.4775L4.28957 23.3714C4.5145 23.327 4.70863 23.248 4.87757 23.1525C5.05303 23.3743 5.28637 23.544 5.55423 23.6385C5.7325 23.7002 5.91917 23.734 6.10677 23.734C7.08677 23.734 7.7205 22.9355 8.3337 22.1641C8.7509 21.6395 9.22317 21.0446 9.7085 20.7678C10.7361 20.1815 11.591 19.5933 12.278 18.9993C12.0792 19.5903 11.8371 20.1648 11.5537 20.7177C9.5489 24.5488 10.6026 29.5438 11.2317 31.7404C9.4089 32.7838 6.5053 33.5417 5.39183 33.7712L4.4865 33.9583L4.31383 34.9033C2.43503 45.2616 6.1413 49.0436 8.51664 50.3762C9.79997 51.0936 10.8658 51.2036 10.9834 51.2142L12.2864 51.3289L12.4525 49.977L12.9649 45.8103L13.1665 44.1691L11.578 44.2067C11.5061 44.2067 10.933 44.2019 10.3357 44.0351C9.88864 43.9097 9.32864 43.6725 9.1849 43.2424C8.89837 42.389 9.16717 40.4036 9.5293 38.7855C10.0557 38.8231 10.5784 38.8434 11.0908 38.8434C11.843 38.8434 12.5542 38.7961 13.243 38.7267C13.1704 38.8172 13.0957 38.9059 13.019 38.9928C12.0129 40.094 12.0978 41.1962 12.2369 41.7555C12.5272 42.9155 13.4838 43.7111 14.251 43.9589C14.741 44.1151 17.8005 44.441 23.3473 44.9299L23.912 44.9791L24.346 44.5963C24.3534 44.5895 25.325 43.7439 26.4917 43.2704C26.9808 43.0708 27.4194 42.9705 27.7946 42.9705C27.8581 42.9705 27.9216 42.9734 27.985 42.9801L30.3482 43.2202L29.358 40.9696C29.2292 40.6765 28.0438 38.0758 26.1492 37.0855L25.4333 36.7104L24.7697 37.179C24.7464 37.1964 24.1826 37.5946 23.4789 38.1471C23.0617 38.4769 22.5222 38.9176 22.021 39.3756L21.6066 39.2493C22.4429 38.3332 23.7318 37.1183 25.4902 35.9177C25.9308 35.8859 26.3778 35.8637 26.8417 35.8637C28.937 35.8637 30.9839 36.1752 33.2089 36.5744C35.5404 40.9339 38.9088 41.8741 41.3775 41.8741C42.5451 41.8741 43.6371 41.6658 44.5564 41.3997C43.6231 46.3889 45.0865 49.8902 46.1683 51.6693C46.9177 52.8978 47.6103 53.5497 47.6868 53.6201L48.1031 54L48.6528 53.9749C51.0104 53.866 51.6161 50.4428 51.7449 49.3965L51.8448 48.5826L51.2195 48.0841C50.9345 47.8585 50.6714 47.605 50.4336 47.3271C49.8438 46.6382 49.4716 45.7796 49.3668 44.8663C49.7719 45.28 50.1872 45.6879 50.6287 46.0707C51.3448 46.7039 52.1096 47.276 52.9153 47.7813L54.2892 48.6386L54.8856 47.0909C54.9201 47.0022 55.7191 44.9039 55.776 42.4806L55.8021 41.3823L54.7895 41.0776C54.7895 41.0776 54.2033 40.8857 53.3699 40.3313ZM47.2033 34.209C47.0904 34.2129 46.9747 34.2148 46.8636 34.2196C46.662 34.2283 46.4632 34.2389 46.2644 34.2389C45.9592 34.2389 45.6633 34.2215 45.3357 34.1C45.8244 33.5555 46.2426 32.9477 46.5799 32.292C46.7684 32.9747 46.9784 33.6102 47.2033 34.209ZM4.03383 21.9732C4.03383 21.9732 0.973431 19.9038 1.40836 18.7178C1.81343 17.6079 5.6429 9.93214 6.5641 6.696L6.52397 6.83679C6.92997 7.23696 7.82037 7.72779 8.58664 8.50596C9.06917 8.99679 9.6021 9.64768 10.1593 10.449C9.65064 11.2089 8.11157 13.2734 4.30543 16.9762C3.72117 16.1759 3.19103 15.6426 2.88956 15.4633L2.6021 16.0824C2.81583 16.2164 3.02676 16.3707 3.43277 16.794C4.0133 17.4005 5.08477 19.0639 5.70543 20.8633C5.7829 20.8237 5.9145 20.8209 6.03677 20.8286C4.81503 20.9057 4.63397 21.8546 4.03383 21.9732ZM9.0533 19.5191C7.65797 20.3136 6.7993 22.3107 6.1077 22.3107C6.06804 22.3101 6.02869 22.3033 5.99103 22.2904C5.6429 22.1689 6.42597 21.0764 6.31397 20.8623L6.32703 20.8643C5.91794 19.6966 5.37191 18.5852 4.70117 17.5548C8.28703 14.0737 9.91104 12.0073 10.5672 11.0661C11.3689 12.3053 12.2033 13.8346 12.9929 15.6494C12.7866 16.5684 11.8869 17.9 9.0533 19.5191ZM19.2304 40.0044L22.3832 40.9696C22.8685 40.4653 23.5218 39.9099 24.1117 39.4383C24.5858 39.986 25.1869 40.8317 25.7665 42.0467C24.9397 42.4283 24.1649 42.9204 23.4621 43.5105C23.4621 43.5105 15.2469 42.7873 14.6552 42.5993C14.0653 42.4093 12.8342 41.2589 14.0093 39.9725C14.294 39.6611 14.7177 39.0989 15.1909 38.4374C16.8616 38.1153 18.3876 37.6476 19.8772 37.1829C20.7661 36.8991 21.6611 36.6361 22.5614 36.3941C20.2729 38.3622 19.2304 40.0044 19.2304 40.0044ZM29.6128 34.6111C28.6935 34.5052 27.7695 34.4486 26.8445 34.4414C25.3568 34.4414 23.8532 34.5928 22.3328 34.9852C18.76 35.9071 15.5568 37.4181 11.0917 37.4181C10.275 37.4181 9.41544 37.367 8.50357 37.2533C8.50357 37.2533 7.2305 41.7237 7.89597 43.7101C8.22544 44.6937 9.1401 45.1739 9.98197 45.4082L10.0333 45.4198C9.78504 46.2597 9.4453 47.5856 9.21384 49.1477C9.19704 49.1381 9.18117 49.1313 9.16437 49.1226C6.99063 47.9048 3.96103 44.5143 5.65597 35.1685C5.65597 35.1685 10.6194 34.1473 12.8594 32.3354C12.8594 32.3354 10.4356 25.8255 12.7521 21.4004C13.5977 19.7823 14.6673 16.8981 13.4997 15.0699C13.5013 15.0671 13.5032 15.0645 13.5053 15.0621C12.8828 13.6456 12.3629 12.313 11.5565 11.1047C10.818 9.9902 9.97927 8.95025 9.05144 7.99875C8.1321 7.06146 7.13997 6.49157 6.71437 6.07982C6.71437 6.07982 5.91823 4.26407 6.0629 2.11468C6.0629 2.11468 7.85584 2.48014 9.5797 4.64786C9.5797 4.64786 10.149 4.49357 11.088 4.49357C14.0597 4.49454 20.7284 6.04029 24.7473 18.9212C24.8584 19.2761 25.0245 19.5731 25.2158 19.844C25.2065 19.8392 25.1962 19.8363 25.1869 19.8325C25.1869 19.8325 27.3298 22.2644 26.0288 24.3646C24.793 26.3607 27.0564 29.4792 30.6488 30.2371C30.6647 30.9439 30.5638 32.5919 29.6128 34.6111ZM46.6013 39.0333C46.6013 39.0333 44.226 40.4518 41.3803 40.4518C38.8911 40.4518 36.0407 39.366 34.1068 35.2929C33.266 35.1385 32.4231 34.9964 31.5784 34.8666C31.7063 34.6825 32.3241 33.6372 32.6377 30.4039C33.8121 30.3463 34.9646 30.0552 36.0323 29.5467C40.3751 27.5217 36.4821 22.6376 38.0081 20.5701C38.7856 20.4573 39.5705 20.3464 40.3611 20.2471C40.5599 20.223 40.7549 20.2105 40.9453 20.2105C42.6757 20.2114 44.0851 21.1998 45.0333 22.6781L45.0305 22.68C45.4288 23.3092 45.7396 23.9932 45.9536 24.7118H45.9555C46.9289 27.919 46.2457 32.0307 43.1004 34.1984C44.3305 35.4635 45.2956 35.6622 46.2644 35.6622C46.7087 35.6622 47.1529 35.6207 47.6233 35.6207C48.0172 35.6207 48.4307 35.6487 48.8759 35.7567C48.8759 35.7567 49.7429 36.9755 49.1475 38.8675C48.6155 40.5656 46.6779 44.847 49.3005 48.1227C48.9561 48.923 48.2935 50.138 47.2743 50.8246C46.0339 48.7389 44.6348 44.7805 46.6013 39.0333ZM49.4303 42.8615C49.588 41.8915 49.8941 40.9175 50.2161 39.9928C50.2749 39.824 50.3179 39.689 50.3664 39.5463C51.1756 40.4373 51.9699 41.0901 52.6353 41.5318L52.7791 41.6224C52.4664 43.2328 52.0361 44.3494 51.6563 45.1016C51.6077 45.0591 51.5555 45.0225 51.5069 44.9791C50.7547 44.3244 50.0743 43.6011 49.4303 42.8615Z" fill="white" fill-opacity="0.9"/>
</svg>
