<svg width="61" height="51" viewBox="0 0 61 51" fill="none" xmlns="http://www.w3.org/2000/svg">
<path d="M59.4954 22.3567C59.4252 22.2266 59.347 22.1085 59.2727 21.9852C63.9585 18.2428 57.6257 11.9241 57.6257 11.9241C57.6257 11.9241 55.8791 16.1 55.4948 19.0231C55.4267 19.0086 55.3586 18.9874 55.2894 18.9763C52.0087 18.4723 48.2318 18.2377 43.4036 18.2377C41.1791 18.2377 39.0442 18.2853 36.9793 18.3303C35.1961 18.3694 33.5115 18.4068 31.9987 18.4068C26.5636 18.4068 25.7228 17.8263 25.5947 17.6495C25.5977 15.4328 25.0731 13.3376 24.0717 11.5229C25.8051 9.44981 25.8255 6.54544 25.2602 5.30703C24.7895 4.27431 23.9009 4.16211 23.54 4.16211C23.2889 4.16211 23.0469 4.21056 22.8172 4.30576C22.4786 4.44515 21.9337 4.67295 21.3003 4.96364C23.7616 3.30619 27.0495 3.16764 27.0495 3.16764C21.3501 1.40479 18.1527 3.43113 16.5464 5.65722C17.9199 1.71503 23.2818 0.00913104 23.2818 0.00913104C15.8998 -0.205063 13.2768 3.39033 12.559 6.45704C11.2739 6.83953 10.0377 7.48636 8.90003 8.39329C6.4763 10.3287 6.01473 11.8076 5.52571 13.3716C5.01332 15.012 4.37587 17.0537 0.901922 20.8097C-0.257076 22.0643 -0.0506935 23.1633 0.17704 23.7073C0.721972 25.0154 2.40964 25.947 5.05195 26.4009C5.09566 26.4085 5.14752 26.4145 5.19428 26.4213C5.04483 29.7362 10.2451 31.244 10.2451 31.244C10.2451 31.244 8.53606 28.7196 9.77944 25.25L9.79368 25.2432C10.3173 25.0035 11.0157 24.9185 11.7569 24.8293C12.5641 24.7315 13.5503 24.6117 14.4693 24.2147C14.9614 27.7608 16.4091 33.1182 20.5947 37.448C20.7869 38.2631 21.3481 41.7863 19.1714 49.3876L18.7098 51H24.9176L25.2755 50.1483L28.299 42.9431L28.4169 42.6643L28.3824 42.3685C28.2594 41.2788 28.2777 40.0591 28.4078 39.38C29.6776 39.6749 31.2351 39.8194 33.1383 39.8194C38.5745 39.8194 45.2082 38.615 47.7753 38.1042C49.1 39.7489 51.297 41.1726 52.5953 41.9316C52.1723 43.2788 51.5684 45.9035 51.6518 49.7259L51.6803 51H57.887L58.069 49.884C58.4025 47.833 60.1013 40.5717 60.1186 40.4986L60.205 40.1305L60.0525 39.7795C58.9993 37.3502 59.0033 36.0574 59.0369 35.6775C61.8449 31.1157 61.2573 25.5985 59.4954 22.3567ZM58.069 40.1305C58.069 40.1305 57.5414 45.0128 56.9283 47.9724L53.403 47.8902C53.5535 43.5443 55.0196 41.0488 55.0196 41.0488C55.0196 41.0488 49.9638 38.4905 48.6187 36.0732C48.6187 36.0732 39.7843 37.9095 33.1383 37.9095C31.2168 37.9095 29.6039 38.2317 28.4078 37.6098C28.3213 37.5811 27.7803 37.3182 27.6873 37.3171C26.1817 37.3171 26.4913 42.3685 26.4913 42.3685L24.0991 47.8902L21.332 47.8994C23.3989 39.7659 22.5281 36.7042 22.5281 36.7042C15.8445 30.0098 16.4732 18.9763 16.4732 18.9763C15.6466 22.8684 11.2882 21.9174 8.90003 23.0122C7.04665 23.8622 6.60135 25.1939 5.97813 25.1939C5.76345 25.1899 5.54984 25.1674 5.34068 25.1268C2.29069 24.6032 2.02867 22.209 3.58823 20.5244C10.4355 13.1186 5.7077 13.5721 10.2451 9.95122C11.0401 9.31714 11.7333 9.03371 12.5588 8.70732C12.4734 10.1514 12.8681 11.3716 13.1569 11.5229C14.4074 12.1782 16.89 10.8157 16.4732 9.29596C16.3012 8.68156 16.7338 8.7163 16.7451 8.08537C17.5651 8.19231 18.4135 8.36793 19.1373 8.70732C20.7222 7.4638 21.831 6.54094 22.8172 6.13296C22.8431 6.12119 23.5095 5.46082 23.539 5.46087C24.2608 5.46172 23.7057 9.53905 21.3003 11.5229C22.4349 13.2271 23.539 15.8068 23.539 18.2377C23.539 19.9572 27.2976 20.5244 31.9987 20.5244C35.2601 20.5244 39.2454 20.2555 43.4036 20.2555C47.2832 20.2555 50.6433 20.5752 54.3612 21.1463C58.1747 21.7311 60.6303 28.8964 56.8137 34.8293C56.8137 34.8293 56.5399 36.6125 58.069 40.1305Z" fill="white" fill-opacity="0.9"/>
</svg>
