<svg width="30" height="25" viewBox="0 0 30 25" fill="none" xmlns="http://www.w3.org/2000/svg">
<path d="M5.625 6.73077C5.625 6.47575 5.72377 6.23118 5.89959 6.05086C6.0754 5.87054 6.31386 5.76923 6.5625 5.76923H19.6875C19.9361 5.76923 20.1746 5.87054 20.3504 6.05086C20.5262 6.23118 20.625 6.47575 20.625 6.73077C20.625 6.98579 20.5262 7.23036 20.3504 7.41068C20.1746 7.591 19.9361 7.69231 19.6875 7.69231H6.5625C6.31386 7.69231 6.0754 7.591 5.89959 7.41068C5.72377 7.23036 5.625 6.98579 5.625 6.73077ZM15.9375 11.5385C15.6889 11.5385 15.4504 11.6398 15.2746 11.8201C15.0988 12.0004 15 12.245 15 12.5C15 12.755 15.0988 12.9996 15.2746 13.1799C15.4504 13.3602 15.6889 13.4615 15.9375 13.4615H19.6875C19.9361 13.4615 20.1746 13.3602 20.3504 13.1799C20.5262 12.9996 20.625 12.755 20.625 12.5C20.625 12.245 20.5262 12.0004 20.3504 11.8201C20.1746 11.6398 19.9361 11.5385 19.6875 11.5385H15.9375ZM15 18.2692C15 18.0142 15.0988 17.7696 15.2746 17.5893C15.4504 17.409 15.6889 17.3077 15.9375 17.3077H19.6875C19.9361 17.3077 20.1746 17.409 20.3504 17.5893C20.5262 17.7696 20.625 18.0142 20.625 18.2692C20.625 18.5242 20.5262 18.7688 20.3504 18.9491C20.1746 19.1295 19.9361 19.2308 19.6875 19.2308H15.9375C15.6889 19.2308 15.4504 19.1295 15.2746 18.9491C15.0988 18.7688 15 18.5242 15 18.2692ZM6.5625 11.5385C6.31386 11.5385 6.0754 11.6398 5.89959 11.8201C5.72377 12.0004 5.625 12.245 5.625 12.5V18.2692C5.625 18.5242 5.72377 18.7688 5.89959 18.9491C6.0754 19.1295 6.31386 19.2308 6.5625 19.2308H12.1875C12.4361 19.2308 12.6746 19.1295 12.8504 18.9491C13.0262 18.7688 13.125 18.5242 13.125 18.2692V12.5C13.125 12.245 13.0262 12.0004 12.8504 11.8201C12.6746 11.6398 12.4361 11.5385 12.1875 11.5385H6.5625ZM7.5 17.3077V13.4615H11.25V17.3077H7.5ZM0 3.84615C0 2.82609 0.395088 1.84781 1.09835 1.12651C1.80161 0.405218 2.75544 0 3.75 0H22.5C23.4946 0 24.4484 0.405218 25.1516 1.12651C25.8549 1.84781 26.25 2.82609 26.25 3.84615V5.76923C27.2446 5.76923 28.1984 6.17445 28.9016 6.89574C29.6049 7.61704 30 8.59532 30 9.61538V20.1923C30 21.4674 29.5061 22.6902 28.6271 23.5919C27.748 24.4935 26.5557 25 25.3125 25H4.6875C3.4443 25 2.25201 24.4935 1.37294 23.5919C0.49386 22.6902 0 21.4674 0 20.1923V3.84615ZM24.375 3.84615C24.375 3.33612 24.1775 2.84698 23.8258 2.48633C23.4742 2.12569 22.9973 1.92308 22.5 1.92308H3.75C3.25272 1.92308 2.77581 2.12569 2.42417 2.48633C2.07254 2.84698 1.875 3.33612 1.875 3.84615V20.1923C1.875 20.9574 2.17132 21.6911 2.69876 22.232C3.22621 22.773 3.94158 23.0769 4.6875 23.0769H25.3125C26.0584 23.0769 26.7738 22.773 27.3012 22.232C27.8287 21.6911 28.125 20.9574 28.125 20.1923V9.61538C28.125 9.10535 27.9275 8.61621 27.5758 8.25556C27.2242 7.89492 26.7473 7.69231 26.25 7.69231V20.1923C26.25 20.4473 26.1512 20.6919 25.9754 20.8722C25.7996 21.0525 25.5611 21.1538 25.3125 21.1538C25.0639 21.1538 24.8254 21.0525 24.6496 20.8722C24.4738 20.6919 24.375 20.4473 24.375 20.1923V3.84615Z" fill="#4DC090"/>
</svg>
