<svg width="40" height="40" viewBox="0 0 40 40" fill="none" xmlns="http://www.w3.org/2000/svg">
<path fill-rule="evenodd" clip-rule="evenodd" d="M0.386606 7.85881C0.138959 8.1066 -0.000106975 8.44263 6.17428e-08 8.79295C0.000107099 9.14328 0.139379 9.47922 0.387177 9.72686C0.634976 9.9745 0.971002 10.1136 1.32133 10.1135C1.67167 10.1134 2.00761 9.97408 2.25526 9.72629L3.18901 8.79255L7.85778 13.4612L4.12276 17.1974C3.99663 17.3192 3.89603 17.4649 3.82683 17.626C3.75762 17.7872 3.7212 17.9605 3.71968 18.1358C3.71816 18.3112 3.75158 18.4851 3.81799 18.6474C3.88439 18.8097 3.98246 18.9571 4.10646 19.0811C4.23046 19.2051 4.37791 19.3032 4.54022 19.3696C4.70252 19.436 4.87643 19.4694 5.05178 19.4679C5.22714 19.4664 5.40044 19.43 5.56157 19.3608C5.7227 19.2916 5.86843 19.191 5.99027 19.0648L7.85778 17.1974L23.7362 33.0755C24.6448 33.9842 25.7987 34.6081 27.0566 34.8709C28.3145 35.1336 29.6217 35.0238 30.8181 34.5549L32.1422 35.8779C32.47 36.2058 32.8784 36.4417 33.3262 36.5617C33.7741 36.6817 34.2456 36.6817 34.6935 36.5616L37.7447 39.6128C37.8674 39.7355 38.013 39.8329 38.1732 39.8993C38.3334 39.9657 38.5052 40 38.6787 40C38.8521 40.0001 39.0239 39.9659 39.1842 39.8996C39.3445 39.8333 39.4901 39.736 39.6128 39.6134C39.7355 39.4908 39.8329 39.3452 39.8993 39.185C39.9657 39.0247 39.9999 38.853 40 38.6795C40.0001 38.506 39.9659 38.3343 39.8996 38.174C39.8333 38.0137 39.736 37.868 39.6134 37.7454L36.561 34.693C36.6809 34.2451 36.6808 33.7734 36.5605 33.3256C36.4403 32.8777 36.2043 32.4694 35.8761 32.1418L34.5542 30.8188C35.0236 29.6223 35.1337 28.315 34.8711 27.0569C34.6085 25.7988 33.9847 24.6447 33.076 23.7358L17.1976 7.85767L19.0662 5.99019C19.1889 5.86749 19.2863 5.72183 19.3527 5.56152C19.4191 5.40121 19.4533 5.22939 19.4533 5.05587C19.4533 4.88236 19.4191 4.71054 19.3527 4.55023C19.2863 4.38992 19.1889 4.24426 19.0662 4.12156C18.9436 3.99887 18.7979 3.90154 18.6376 3.83514C18.4773 3.76873 18.3054 3.73456 18.1319 3.73456C17.9584 3.73456 17.7866 3.76873 17.6263 3.83514C17.466 3.90154 17.3203 3.99887 17.1976 4.12156L13.4626 7.85767L8.79381 3.18896L9.72643 2.25522C9.84912 2.1326 9.94647 1.98702 10.0129 1.82678C10.0793 1.66654 10.1136 1.49478 10.1136 1.32132C10.1137 1.14785 10.0795 0.976075 10.0132 0.815794C9.94687 0.655513 9.84962 0.509867 9.727 0.387172C9.60437 0.264476 9.45879 0.167134 9.29854 0.100703C9.1383 0.0342722 8.96654 5.30574e-05 8.79308 6.16517e-08C8.61961 -5.29341e-05 8.44783 0.0340609 8.28755 0.100394C8.12726 0.166727 7.98162 0.26398 7.85892 0.386601L0.386606 7.85881ZM11.8473 9.47174L7.17858 4.80303L4.80424 7.17734L9.47301 11.846L11.8473 9.47174ZM15.5835 9.47174L9.47187 15.5833L14.5014 20.6127L20.613 14.5012L15.5835 9.47288V9.47174ZM16.37 22.4813L19.1713 25.2825L21.2933 23.1605C21.416 23.0379 21.5617 22.9406 21.722 22.8743C21.8822 22.808 22.054 22.7739 22.2275 22.7739C22.401 22.774 22.5727 22.8082 22.733 22.8746C22.8932 22.941 23.0388 23.0384 23.1614 23.1611C23.284 23.2838 23.3813 23.4294 23.4476 23.5897C23.514 23.75 23.5481 23.9218 23.548 24.0952C23.548 24.2687 23.5137 24.4404 23.4473 24.6007C23.3809 24.7609 23.2835 24.9065 23.1608 25.0291L21.0399 27.1512L22.9074 29.0186L25.0283 26.8955C25.151 26.7728 25.2967 26.6754 25.457 26.609C25.6173 26.5426 25.7891 26.5085 25.9627 26.5085C26.1362 26.5085 26.308 26.5426 26.4683 26.609C26.6286 26.6754 26.7743 26.7728 26.897 26.8955C27.0197 27.0182 27.117 27.1638 27.1834 27.3241C27.2498 27.4844 27.284 27.6563 27.284 27.8298C27.284 28.0033 27.2498 28.1751 27.1834 28.3354C27.117 28.4957 27.0197 28.6414 26.897 28.7641L24.7749 30.8861L25.3503 31.4614C25.9451 32.0565 26.7007 32.4649 27.5244 32.6366C28.3481 32.8084 29.204 32.736 29.9871 32.4283L32.4287 29.9866C32.7363 29.2034 32.8085 28.3475 32.6366 27.5238C32.4646 26.7002 32.056 25.9446 31.4607 25.3499L22.4805 16.3698L16.37 22.4813ZM34.294 33.7924C34.2845 33.7795 34.2742 33.7673 34.2631 33.7558L33.3225 32.8153C33.1624 32.9932 32.9929 33.1623 32.8146 33.3221L33.7552 34.2638C33.7665 34.275 33.7788 34.2853 33.7917 34.2946C33.9101 34.0845 34.0838 33.9108 34.294 33.7924Z" fill="white" fill-opacity="0.9"/>
</svg>
