<svg width="30" height="23" viewBox="0 0 30 23" fill="none" xmlns="http://www.w3.org/2000/svg">
<path fill-rule="evenodd" clip-rule="evenodd" d="M0.333984 4.07654C0.333984 1.9098 2.12484 0.15332 4.33398 0.15332H25.6673C27.8764 0.15332 29.6673 1.9098 29.6673 4.07654V18.4617C29.6673 20.6284 27.8764 22.3849 25.6673 22.3849H4.33398C2.12484 22.3849 0.333984 20.6284 0.333984 18.4617V4.07654ZM4.33398 2.7688C3.5976 2.7688 3.00065 3.35429 3.00065 4.07654V18.4617C3.00065 19.1839 3.5976 19.7694 4.33398 19.7694H25.6673C26.4036 19.7694 27.0006 19.1839 27.0006 18.4617V4.07654C27.0006 3.35429 26.4036 2.7688 25.6673 2.7688H4.33398Z" fill="white" fill-opacity="0.53"/>
</svg>
