<svg width="54" height="50" viewBox="0 0 54 50" fill="none" xmlns="http://www.w3.org/2000/svg">
<path d="M54 22.6393L53.7057 21.6284C53.6247 21.3543 52.0911 16.2876 47.6694 14.021C51.6969 11.0201 52.5771 7.25516 52.6212 7.05682L52.8633 5.95766L51.8886 5.33016C51.6267 5.16183 49.2048 3.6785 45.1053 3.6785C41.7951 3.6785 38.3661 4.64516 34.9119 6.55182C31.5846 8.38848 30.7773 11.3043 30.0654 13.876C29.16 17.1526 28.4238 19.7559 23.04 20.9443C22.5997 20.8937 22.1607 20.834 21.7233 20.7651L23.6349 19.0984C23.6349 19.0984 19.4445 20.3484 17.8641 19.1009C17.7741 19.0301 17.6742 18.8759 17.6814 18.5451C17.6958 17.9401 18.5742 12.4985 18.576 10.9218C22.3245 10.1085 24.1731 6.52932 22.5783 5.62933C21.4524 4.99266 20.0367 6.64516 17.4159 7.17849C17.4402 6.85932 17.4474 6.52016 17.4105 6.14349C17.2062 4.0385 20.412 3.22434 20.0232 2.13934C19.5183 0.731845 15.3936 1.60018 13.4109 4.6985C13.171 5.08143 12.9864 5.49189 12.8619 5.91933C12.7701 5.58783 12.6488 5.26394 12.4992 4.951C11.5767 3.026 14.4576 1.28601 13.5765 0.349346C12.411 -0.888983 9.0198 1.29518 8.2224 4.8435C8.06511 5.58759 8.08662 6.35462 8.2854 7.09016C8.2062 7.02599 8.1405 6.96266 8.0541 6.89766C6.5889 5.81599 8.0784 3.52434 6.9795 3.101C5.4135 2.49517 3.9969 5.476 4.8501 8.39015C5.0301 9.00348 5.3955 9.61765 5.8635 10.0868C2.9097 10.396 0.7299 13.0285 0.6336 13.1485L0 13.9268L1.0269 13.8176C1.0386 13.816 1.278 13.7926 1.647 13.7926C2.1627 13.7926 2.8701 13.8493 3.5658 14.0426C2.5929 14.996 1.6803 16.156 1.1088 17.5151C-0.2097 20.6468 2.7828 19.0243 3.3921 19.0926C3.3921 19.0926 3.681 19.4776 4.0446 19.7343C4.041 19.9218 4.0257 20.0976 4.0257 20.2884C4.0257 22.7326 4.572 29.7992 4.5954 30.0984L4.7592 32.2017L6.1164 30.5926C8.5239 37.0617 14.1165 42.3809 20.6784 43.735C21.4974 44.6675 22.7664 45.65 24.2055 46.0658C22.0005 48.97 17.9199 49.2575 17.9199 50H30.4173C30.4173 49.2325 28.1961 49.4158 26.6697 46.085C28.2303 45.5975 29.6424 44.1667 30.5739 42.7409C34.6806 41.0234 38.1474 37.79 40.4073 33.8817C42.7806 34.6176 44.8263 34.7217 44.9919 34.7284L46.2978 34.7809L46.7181 33.5984C46.7865 33.4067 48.1383 29.5326 47.5866 25.8276C50.8824 25.2168 53.0658 23.4209 53.1747 23.3301L54 22.6393ZM4.2741 13.3926C3.4821 13.101 2.6514 12.9901 1.9935 12.9651C2.8557 12.1585 4.4676 10.9418 6.3207 10.896C6.0327 11.3635 5.7672 11.8676 5.5251 12.4085C5.1237 12.6951 4.7007 13.0243 4.2741 13.3926ZM5.7708 20.2876C5.7708 15.7393 6.9723 12.5326 8.6904 10.5243C8.7516 10.4793 8.8155 10.4376 8.8767 10.3843C9.3699 9.95515 10.5921 9.27931 11.3355 9.08931C11.8899 8.94848 13.2813 9.00515 14.1543 9.57848C14.9571 10.1093 15.5466 11.0393 16.7184 11.0851C16.7553 11.0868 16.7895 11.0818 16.8264 11.0826C16.7931 12.5951 15.9534 17.7951 15.9372 18.5076C15.9201 19.2084 16.1559 19.8159 16.6176 20.2659C16.9956 20.6343 17.5104 20.8901 18.1566 21.0309L16.2135 22.2659L17.8074 24.0551L13.6638 23.6443L14.2794 27.0584L10.5156 24.4718L9.9972 28.4126L7.8228 25.9134L6.1812 27.8601C6.012 25.5134 5.7708 21.8534 5.7708 20.2876ZM29.6352 41.3109L29.3679 41.4184L29.2203 41.6567C28.1475 43.3942 26.6526 44.6067 25.587 44.6067C24.3981 44.6067 22.8636 43.7284 21.8547 42.4725L21.6531 42.2217L21.3291 42.1609C14.8869 40.9625 9.4167 35.5367 7.4142 29.0534L7.8435 28.5459L11.2266 32.4334L11.8809 27.4626L16.7229 30.7926L15.7752 25.5301L21.6396 26.1126C19.314 27.7634 18.2052 30.2592 18.7173 32.8526C19.3158 35.8767 21.9861 38.1242 25.5195 38.5792C26.3367 38.6842 27.1458 38.7367 27.9261 38.7367C34.0209 38.7367 36.9054 35.5626 37.0242 35.4267L37.3635 35.0442L37.1682 34.5784C36.6921 33.4417 35.7264 32.5817 34.9326 32.0276C36.7254 30.6701 37.7685 28.8326 37.8207 28.7401L38.2671 27.9434L37.3995 27.5826C36.5319 27.2217 34.4106 26.9642 32.8491 26.8142C33.1799 26.3947 33.4866 25.9594 33.768 25.5101L34.3557 24.5526L33.2271 24.2826C33.1641 24.2668 31.6584 23.9126 29.5542 23.9126C26.9406 23.9126 24.6177 24.4418 22.6512 25.4859C22.3578 25.6426 22.0905 25.8184 21.825 25.9976L18.8136 22.6143L19.6065 22.1109C21.4434 22.4184 23.0292 22.6843 24.0291 22.6843C27.7524 22.6843 31.248 21.6759 34.0578 20.8651C36.0576 20.2893 37.7847 19.7901 39.0528 19.7901C39.9591 19.7901 41.4756 19.7901 41.4756 23.7993C41.4747 31.2051 36.495 38.5692 29.6352 41.3109ZM31.0221 28.3367C32.3325 28.4284 34.3737 28.6276 35.6715 28.8584C35.0937 29.6242 34.1352 30.6926 32.9049 31.3184L31.3857 32.0934L32.94 32.8059C32.958 32.8142 34.5132 33.5384 35.2917 34.7242C34.4034 35.4725 32.0265 37.07 27.9243 37.07C27.2214 37.07 26.4906 37.0217 25.7517 36.9267C22.3821 36.4925 20.7945 34.3776 20.4309 32.5417C19.9935 30.3259 21.168 28.1801 23.499 26.9418C25.2036 26.0376 27.2403 25.5784 29.5542 25.5784C30.3237 25.5784 31.0059 25.6318 31.5441 25.6951C31.2462 26.0851 30.8745 26.5284 30.4686 26.9167L29.1249 28.2034L31.0221 28.3367ZM45.4158 24.3618C46.8585 28.0176 45.0639 33.0626 45.0639 33.0626C45.0639 33.0626 43.2882 32.9876 41.1975 32.3801C42.489 29.6884 43.2198 26.7468 43.2198 23.7993C43.2198 21.3634 42.7878 18.1234 39.051 18.1234C37.5246 18.1234 35.6841 18.6551 33.552 19.2693C31.8627 19.7568 30.0384 20.2784 28.1088 20.6243C32.9697 17.0868 30.5586 10.8793 35.784 7.99349C39.4776 5.95516 42.6393 5.34433 45.1035 5.34433C48.7881 5.34433 50.9112 6.71182 50.9112 6.71182C50.9112 6.71182 49.7412 12.0068 43.1325 14.6085C49.8591 14.6626 52.0218 22.0759 52.0218 22.0759C52.0218 22.0759 49.2903 24.3618 45.4158 24.3618Z" fill="white" fill-opacity="0.9"/>
</svg>
