<svg width="40" height="40" viewBox="0 0 40 40" fill="none" xmlns="http://www.w3.org/2000/svg">
<path d="M20.0001 40H0.000257162L0 36.5217H15.1726C16.3602 30.4348 11.0344 25.8734 7.30878 25.8734C8.27581 21.7391 2.7646 21.548 0.000257162 20.65C1.28025 20.25 2.62024 20 4.00023 20C12.8402 20 20.0001 28.95 20.0001 40ZM40 20.65C38.72 20.25 37.38 20 36 20C30.1401 20 25.0401 23.95 22.2401 29.825C23.395 33.0223 23.9884 36.4919 23.9801 40H39.98L40 36.5217H26.207C24.8277 30.4348 28.0034 24.3478 31.7242 24.3478C33.5206 20.2108 37.2347 21.551 40 20.65ZM26.8966 16.775C23.5967 10.5293 31.7052 7.97507 35.46 5.05C26.8801 5.4 19.3102 16.1315 19.3102 26.9565L20.0001 25.05C21.9001 21.875 21.8567 14.0232 26.8966 16.775ZM17.2415 12.1739C16.4133 9.45454 15.6237 7.13527 14.0002 5.05C12.3767 2.96473 11.5524 1.10872 9.4002 0C12.2802 4.65 15.1726 9.32717 15.1726 15.6522C15.1726 16.1772 15.0457 17.3522 14.4829 18.2609C16.425 19.9609 16.4615 22.7283 17.2415 23.4783C17.6694 20.5737 16.3602 15.6522 17.2415 12.1739Z" fill="white" fill-opacity="0.9"/>
</svg>
