<svg width="44" height="40" viewBox="0 0 44 40" fill="none" xmlns="http://www.w3.org/2000/svg">
<path fill-rule="evenodd" clip-rule="evenodd" d="M14.1071 9.36279C12.3528 8.66219 10.4215 8.57336 8.61273 9.11008C6.80401 9.6468 5.21909 10.7791 4.10394 12.3311C2.98879 13.8832 2.40577 15.7683 2.44535 17.6939C2.48493 19.6195 3.14491 21.4778 4.32286 22.9806C5.50081 24.4834 7.13086 25.5465 8.96005 26.005C10.7892 26.4635 12.7153 26.2918 14.4392 25.5164C16.1632 24.741 17.5887 23.4054 18.4945 21.7168C19.4003 20.0282 19.7358 18.081 19.4489 16.1775C19.3996 15.8499 19.4796 15.5158 19.6713 15.2485C19.863 14.9813 20.1506 14.8028 20.4709 14.7525C20.7912 14.7021 21.118 14.7839 21.3793 14.9799C21.6406 15.1759 21.8151 15.4701 21.8644 15.7977C22.2329 18.245 21.8012 20.7483 20.6363 22.9191C19.4715 25.0899 17.6386 26.8068 15.4221 27.8035C13.2055 28.8001 10.7293 29.0207 8.37767 28.431C6.02601 27.8414 3.93042 26.4744 2.41607 24.5423C0.901715 22.6102 0.0532833 20.2209 0.00242717 17.7453C-0.048429 15.2697 0.701134 12.8461 2.1348 10.8506C3.56847 8.85517 5.60608 7.39942 7.93145 6.70928C10.2568 6.01914 12.7399 6.13319 14.9954 7.03374C15.1469 7.09185 15.2856 7.18015 15.4035 7.29353C15.5213 7.40691 15.616 7.5431 15.682 7.6942C15.748 7.8453 15.7839 8.0083 15.7878 8.17373C15.7917 8.33916 15.7634 8.50373 15.7046 8.65789C15.6457 8.81204 15.5576 8.95271 15.4451 9.07174C15.3327 9.19076 15.1983 9.28576 15.0497 9.35122C14.9011 9.41668 14.7412 9.4513 14.5794 9.45308C14.4176 9.45485 14.2571 9.42373 14.1071 9.36154V9.36279Z" fill="white" fill-opacity="0.9"/>
<path fill-rule="evenodd" clip-rule="evenodd" d="M9.77539 38.7513V28.7554C9.77539 28.424 9.90412 28.1062 10.1332 27.8718C10.3624 27.6375 10.6732 27.5059 10.9972 27.5059C11.3212 27.5059 11.632 27.6375 11.8611 27.8718C12.0903 28.1062 12.219 28.424 12.219 28.7554V38.7513C12.219 39.0827 12.0903 39.4005 11.8611 39.6348C11.632 39.8691 11.3212 40.0008 10.9972 40.0008C10.6732 40.0008 10.3624 39.8691 10.1332 39.6348C9.90412 39.4005 9.77539 39.0827 9.77539 38.7513Z" fill="white" fill-opacity="0.9"/>
<path fill-rule="evenodd" clip-rule="evenodd" d="M6.10938 32.503C6.10938 32.1716 6.2381 31.8538 6.46723 31.6195C6.69637 31.3852 7.00714 31.2535 7.33118 31.2535H14.662C14.986 31.2535 15.2968 31.3852 15.5259 31.6195C15.7551 31.8538 15.8838 32.1716 15.8838 32.503C15.8838 32.8344 15.7551 33.1522 15.5259 33.3865C15.2968 33.6209 14.986 33.7525 14.662 33.7525H7.33118C7.00714 33.7525 6.69637 33.6209 6.46723 33.3865C6.2381 33.1522 6.10938 32.8344 6.10938 32.503ZM27.9821 9.09129C26.6281 8.70038 25.2007 8.65711 23.8264 8.96532C22.4521 9.27353 21.1734 9.9237 20.1036 10.8582C19.0338 11.7927 18.206 12.9827 17.6935 14.3226C17.181 15.6626 16.9996 17.1112 17.1655 18.5399C17.1853 18.7033 17.1734 18.8691 17.1303 19.0277C17.0873 19.1864 17.0141 19.3348 16.9148 19.4644C16.8155 19.594 16.6922 19.7022 16.5519 19.7829C16.4115 19.8636 16.257 19.9152 16.0971 19.9346C15.9373 19.954 15.7753 19.9409 15.6204 19.8961C15.4654 19.8513 15.3207 19.7756 15.1945 19.6734C15.0683 19.5712 14.9631 19.4445 14.8849 19.3006C14.8067 19.1567 14.7571 18.9984 14.739 18.8348C14.4535 16.3759 14.9697 13.8893 16.2074 11.761C17.445 9.6327 19.335 7.98168 21.584 7.06415C23.833 6.14661 26.3153 6.01387 28.6456 6.68653C30.9759 7.35918 33.024 8.7996 34.4719 10.7843C35.9199 12.769 36.6869 15.1869 36.6537 17.6629C36.6206 20.1389 35.7893 22.5345 34.2888 24.4779C32.7882 26.4214 30.7024 27.804 28.355 28.4112C26.0076 29.0184 23.5298 28.8163 21.3062 27.8362C21.1588 27.7713 21.0254 27.6773 20.9135 27.5597C20.8016 27.4421 20.7135 27.303 20.6542 27.1506C20.5343 26.8427 20.539 26.4987 20.6672 26.1943C20.7953 25.89 21.0365 25.6501 21.3376 25.5276C21.6386 25.405 21.975 25.4098 22.2726 25.5408C23.3481 26.0175 24.508 26.2631 25.6802 26.2622C26.8523 26.2614 28.0118 26.0141 29.0867 25.5359C30.1615 25.0577 31.1288 24.3586 31.9285 23.4821C32.7281 22.6056 33.3431 21.5704 33.7352 20.4407C34.1273 19.311 34.2882 18.111 34.2078 16.915C34.1275 15.7191 33.8077 14.5528 33.2682 13.4886C32.7287 12.4244 31.9811 11.4849 31.0718 10.7284C30.1625 9.97197 29.1108 9.41474 27.9821 9.09129Z" fill="white" fill-opacity="0.9"/>
<path fill-rule="evenodd" clip-rule="evenodd" d="M32.7357 11.5194C32.5066 11.2851 32.3779 10.9674 32.3779 10.636C32.3779 10.3047 32.5066 9.98696 32.7357 9.75264L41.8992 0.381455C42.0119 0.262116 42.1467 0.166926 42.2958 0.101442C42.4448 0.0359571 42.6052 0.00148886 42.7674 4.71763e-05C42.9296 -0.00139451 43.0905 0.0302201 43.2407 0.0930456C43.3908 0.155871 43.5272 0.24865 43.642 0.365968C43.7567 0.483286 43.8474 0.622794 43.9088 0.776352C43.9703 0.92991 44.0012 1.09444 43.9998 1.26035C43.9984 1.42626 43.9647 1.59021 43.9006 1.74266C43.8366 1.8951 43.7435 2.03297 43.6268 2.14824L34.4633 11.5194C34.2342 11.7537 33.9235 11.8853 33.5995 11.8853C33.2755 11.8853 32.9648 11.7537 32.7357 11.5194Z" fill="white" fill-opacity="0.9"/>
<path fill-rule="evenodd" clip-rule="evenodd" d="M42.6687 8.76268C42.5083 8.76056 42.3498 8.72614 42.2024 8.66138C42.0549 8.59663 41.9214 8.5028 41.8094 8.38526C41.6974 8.26772 41.6092 8.12878 41.5497 7.97636C41.4902 7.82394 41.4607 7.66104 41.4628 7.49695L41.5239 2.53147L36.6685 2.59394C36.3444 2.59825 36.032 2.47074 35.7999 2.23946C35.5677 2.00818 35.435 1.69208 35.4308 1.3607C35.4266 1.02931 35.5512 0.709786 35.7774 0.472415C36.0035 0.235043 36.3126 0.099269 36.6367 0.094961L43.9993 0L43.9064 7.52819C43.9045 7.69238 43.871 7.85458 43.8077 8.00551C43.7445 8.15644 43.6527 8.29314 43.5378 8.40779C43.4228 8.52244 43.2869 8.6128 43.1378 8.6737C42.9887 8.73459 42.8293 8.76483 42.6687 8.76268Z" fill="white" fill-opacity="0.9"/>
</svg>
