<svg width="32" height="34" viewBox="0 0 32 34" fill="none" xmlns="http://www.w3.org/2000/svg">
<path fill-rule="evenodd" clip-rule="evenodd" d="M14.667 24.8467V14.3848H17.3337V24.8467H14.667Z" fill="#01A560" fill-opacity="0.7"/>
<path fill-rule="evenodd" clip-rule="evenodd" d="M21.3327 20.9219H10.666V18.3064H21.3327V20.9219Z" fill="#01A560" fill-opacity="0.7"/>
<path fill-rule="evenodd" clip-rule="evenodd" d="M9.33398 9.15173C9.33398 6.985 11.1248 5.22852 13.334 5.22852H18.6673C20.8764 5.22852 22.6673 6.985 22.6673 9.15173V10.4595C22.6673 11.1817 22.0703 11.7672 21.334 11.7672H10.6673C9.93094 11.7672 9.33398 11.1817 9.33398 10.4595V9.15173ZM13.334 7.84399C12.5976 7.84399 12.0006 8.42949 12.0006 9.15173H20.0006C20.0006 8.42949 19.4037 7.84399 18.6673 7.84399H13.334Z" fill="#01A560" fill-opacity="0.7"/>
<path fill-rule="evenodd" clip-rule="evenodd" d="M1.33398 13.0736C1.33398 10.9069 3.12484 9.15039 5.33398 9.15039H26.6673C28.8764 9.15039 30.6673 10.9069 30.6673 13.0736V27.4587C30.6673 29.6255 28.8764 31.3819 26.6673 31.3819H5.33398C3.12484 31.3819 1.33398 29.6255 1.33398 27.4587V13.0736ZM5.33398 11.7659C4.5976 11.7659 4.00065 12.3514 4.00065 13.0736V27.4587C4.00065 28.181 4.5976 28.7665 5.33398 28.7665H26.6673C27.4036 28.7665 28.0006 28.181 28.0006 27.4587V13.0736C28.0006 12.3514 27.4036 11.7659 26.6673 11.7659H5.33398Z" fill="#01A560" fill-opacity="0.7"/>
</svg>
